{
  "asset": {
    "version": "2.0",
    "generator": "THREE.GLTFExporter"
  },
  "scenes": [
    {
      "name": "Scene",
      "nodes": [
        1
      ]
    }
  ],
  "scene": 0,
  "nodes": [
    {
      "matrix": [
        0.010000000707805157,
        0,
        0,
        0,
        0,
        -1.6292069047935187e-9,
        -0.010000000707805021,
        0,
        0,
        0.010000000707805021,
        -1.6292069047935187e-9,
        0,
        0.19500809907913208,
        0,
        -0.04317093268036842,
        1
      ],
      "name": "surface1",
      "extras": {
        "transformData": {
          "inheritType": 1,
          "eulerOrder": "ZYX",
          "translation": [
            0.19500809907913208,
            0,
            -0.04317093268036842
          ],
          "rotation": [
            -90.00000933466734,
            0,
            0
          ],
          "scale": [
            0.010000000707805157,
            0.010000000707805157,
            0.010000000707805157
          ],
          "parentMatrix": {
            "elements": [
              3.767080108725539,
              0,
              0,
              0,
              0,
              3.767080108725539,
              0,
              0,
              0,
              0,
              3.767080108725539,
              0,
              0,
              0,
              0,
              1
            ]
          },
          "parentMatrixWorld": {
            "elements": [
              3.767080108725539,
              0,
              0,
              0,
              0,
              3.767080108725539,
              0,
              0,
              0,
              0,
              3.767080108725539,
              0,
              0,
              0,
              0,
              1
            ]
          }
        }
      },
      "mesh": 0
    },
    {
      "matrix": [
        3.767080108725539,
        0,
        0,
        0,
        0,
        3.767080108725539,
        0,
        0,
        0,
        0,
        3.767080108725539,
        0,
        0,
        0,
        0,
        1
      ],
      "children": [
        0
      ]
    }
  ],
  "bufferViews": [
    {
      "buffer": 0,
      "byteOffset": 0,
      "byteLength": 350784,
      "target": 34962,
      "byteStride": 12
    },
    {
      "buffer": 0,
      "byteOffset": 350784,
      "byteLength": 350784,
      "target": 34962,
      "byteStride": 12
    },
    {
      "buffer": 0,
      "byteOffset": 701568,
      "byteLength": 233856,
      "target": 34962,
      "byteStride": 8
    }
  ],
  "buffers": [
    {
      "byteLength": 935424,
      "uri": "data:application/octet-stream;base64,"
    }
  ],
  "accessors": [
    {
      "bufferView": 0,
      "componentType": 5126,
      "count": 29232,
      "max": [
        152.6923828125,
        152.70457458496094,
        5
      ],
      "min": [
        -152.61663818359375,
        -152.62625122070312,
        0
      ],
      "type": "VEC3"
    },
    {
      "bufferView": 1,
      "componentType": 5126,
      "count": 29232,
      "max": [
        0.9993822574615479,
        0.9993833303451538,
        0.999998152256012
      ],
      "min": [
        -0.9985072612762451,
        -0.9985864758491516,
        -1
      ],
      "type": "VEC3"
    },
    {
      "bufferView": 2,
      "componentType": 5126,
      "count": 29232,
      "max": [
        1,
        1
      ],
      "min": [
        0,
        0
      ],
      "type": "VEC2"
    }
  ],
  "materials": [
    {
      "pbrMetallicRoughness": {
        "baseColorFactor": [
          0.8,
          0.8,
          0.8,
          1
        ],
        "metallicFactor": 0.5,
        "roughnessFactor": 0.5,
        "baseColorTexture": {
          "index": 0
        }
      }
    }
  ],
  "textures": [
    {
      "sampler": 0,
      "source": 0
    }
  ],
  "samplers": [
    {
      "magFilter": 9729,
      "minFilter": 9987,
      "wrapS": 33071,
      "wrapT": 33071
    }
  ],
  "images": [
    {
      "mimeType": "image/jpeg",
      "uri": "data:image/jpeg;base64,"
    }
  ],
  "meshes": [
    {
      "primitives": [
        {
          "mode": 4,
          "attributes": {
            "POSITION": 0,
            "NORMAL": 1,
            "TEXCOORD_0": 2
          },
          "material": 0
        }
      ]
    }
  ]
}